<?xml version="1.0" encoding="UTF-8"?>
<!DOCTYPE svg PUBLIC "-//W3C//DTD SVG 1.1//EN" "http://www.w3.org/Graphics/SVG/1.1/DTD/svg11.dtd">
<svg version="1.1" xmlns="http://www.w3.org/2000/svg" xmlns:xlink="http://www.w3.org/1999/xlink" x="0" y="0" width="420" height="420" viewBox="0, 0, 420, 420">
  <g id="Layer_1">
    <g>
      <path d="M10.5,10.5 L50.5,10.5 L50.5,50.5 L10.5,50.5 L10.5,10.5 z" fill="#8FC7ED"/>
      <path d="M10.5,10.5 L50.5,10.5 L50.5,50.5 L10.5,50.5 L10.5,10.5 z" fill-opacity="0" stroke="#294270" stroke-width="2"/>
    </g>
    <g>
      <path d="M50.5,10.5 L90.5,10.5 L90.5,50.5 L50.5,50.5 L50.5,10.5 z" fill="#8FC7ED"/>
      <path d="M50.5,10.5 L90.5,10.5 L90.5,50.5 L50.5,50.5 L50.5,10.5 z" fill-opacity="0" stroke="#294270" stroke-width="2"/>
    </g>
    <g>
      <path d="M90.5,10.5 L130.5,10.5 L130.5,50.5 L90.5,50.5 L90.5,10.5 z" fill="#8FC7ED"/>
      <path d="M90.5,10.5 L130.5,10.5 L130.5,50.5 L90.5,50.5 L90.5,10.5 z" fill-opacity="0" stroke="#294270" stroke-width="2"/>
    </g>
    <g>
      <path d="M130.5,10.5 L170.5,10.5 L170.5,50.5 L130.5,50.5 L130.5,10.5 z" fill="#8FC7ED"/>
      <path d="M130.5,10.5 L170.5,10.5 L170.5,50.5 L130.5,50.5 L130.5,10.5 z" fill-opacity="0" stroke="#294270" stroke-width="2"/>
    </g>
    <g>
      <path d="M170.5,10.5 L210.5,10.5 L210.5,50.5 L170.5,50.5 L170.5,10.5 z" fill="#8FC7ED"/>
      <path d="M170.5,10.5 L210.5,10.5 L210.5,50.5 L170.5,50.5 L170.5,10.5 z" fill-opacity="0" stroke="#294270" stroke-width="2"/>
    </g>
    <g>
      <path d="M210.5,10.5 L250.5,10.5 L250.5,50.5 L210.5,50.5 L210.5,10.5 z" fill="#8FC7ED"/>
      <path d="M210.5,10.5 L250.5,10.5 L250.5,50.5 L210.5,50.5 L210.5,10.5 z" fill-opacity="0" stroke="#294270" stroke-width="2"/>
    </g>
    <g>
      <path d="M250.5,10.5 L290.5,10.5 L290.5,50.5 L250.5,50.5 L250.5,10.5 z" fill="#8FC7ED"/>
      <path d="M250.5,10.5 L290.5,10.5 L290.5,50.5 L250.5,50.5 L250.5,10.5 z" fill-opacity="0" stroke="#294270" stroke-width="2"/>
    </g>
    <g>
      <path d="M290.5,10.5 L330.5,10.5 L330.5,50.5 L290.5,50.5 L290.5,10.5 z" fill="#8FC7ED"/>
      <path d="M290.5,10.5 L330.5,10.5 L330.5,50.5 L290.5,50.5 L290.5,10.5 z" fill-opacity="0" stroke="#294270" stroke-width="2"/>
    </g>
    <g>
      <path d="M330.5,10.5 L370.5,10.5 L370.5,50.5 L330.5,50.5 L330.5,10.5 z" fill="#8FC7ED"/>
      <path d="M330.5,10.5 L370.5,10.5 L370.5,50.5 L330.5,50.5 L330.5,10.5 z" fill-opacity="0" stroke="#294270" stroke-width="2"/>
    </g>
    <g>
      <path d="M370.5,10.5 L410.5,10.5 L410.5,50.5 L370.5,50.5 L370.5,10.5 z" fill="#8FC7ED"/>
      <path d="M370.5,10.5 L410.5,10.5 L410.5,50.5 L370.5,50.5 L370.5,10.5 z" fill-opacity="0" stroke="#294270" stroke-width="2"/>
    </g>
    <g>
      <path d="M10.5,50.5 L50.5,50.5 L50.5,90.5 L10.5,90.5 L10.5,50.5 z" fill="#8FC7ED"/>
      <path d="M10.5,50.5 L50.5,50.5 L50.5,90.5 L10.5,90.5 L10.5,50.5 z" fill-opacity="0" stroke="#294270" stroke-width="2"/>
    </g>
    <g>
      <path d="M50.5,50.5 L90.5,50.5 L90.5,90.5 L50.5,90.5 L50.5,50.5 z" fill="#8FC7ED"/>
      <path d="M50.5,50.5 L90.5,50.5 L90.5,90.5 L50.5,90.5 L50.5,50.5 z" fill-opacity="0" stroke="#294270" stroke-width="2"/>
    </g>
    <g>
      <path d="M90.5,50.5 L130.5,50.5 L130.5,90.5 L90.5,90.5 L90.5,50.5 z" fill="#8FC7ED"/>
      <path d="M90.5,50.5 L130.5,50.5 L130.5,90.5 L90.5,90.5 L90.5,50.5 z" fill-opacity="0" stroke="#294270" stroke-width="2"/>
    </g>
    <g>
      <path d="M130.5,50.5 L170.5,50.5 L170.5,90.5 L130.5,90.5 L130.5,50.5 z" fill="#8FC7ED"/>
      <path d="M130.5,50.5 L170.5,50.5 L170.5,90.5 L130.5,90.5 L130.5,50.5 z" fill-opacity="0" stroke="#294270" stroke-width="2"/>
    </g>
    <g>
      <path d="M170.5,50.5 L210.5,50.5 L210.5,90.5 L170.5,90.5 L170.5,50.5 z" fill="#8FC7ED"/>
      <path d="M170.5,50.5 L210.5,50.5 L210.5,90.5 L170.5,90.5 L170.5,50.5 z" fill-opacity="0" stroke="#294270" stroke-width="2"/>
    </g>
    <g>
      <path d="M210.5,50.5 L250.5,50.5 L250.5,90.5 L210.5,90.5 L210.5,50.5 z" fill="#8FC7ED"/>
      <path d="M210.5,50.5 L250.5,50.5 L250.5,90.5 L210.5,90.5 L210.5,50.5 z" fill-opacity="0" stroke="#294270" stroke-width="2"/>
    </g>
    <g>
      <path d="M250.5,50.5 L290.5,50.5 L290.5,90.5 L250.5,90.5 L250.5,50.5 z" fill="#8FC7ED"/>
      <path d="M250.5,50.5 L290.5,50.5 L290.5,90.5 L250.5,90.5 L250.5,50.5 z" fill-opacity="0" stroke="#294270" stroke-width="2"/>
    </g>
    <g>
      <path d="M290.5,50.5 L330.5,50.5 L330.5,90.5 L290.5,90.5 L290.5,50.5 z" fill="#8FC7ED"/>
      <path d="M290.5,50.5 L330.5,50.5 L330.5,90.5 L290.5,90.5 L290.5,50.5 z" fill-opacity="0" stroke="#294270" stroke-width="2"/>
    </g>
    <g>
      <path d="M330.5,50.5 L370.5,50.5 L370.5,90.5 L330.5,90.5 L330.5,50.5 z" fill="#8FC7ED"/>
      <path d="M330.5,50.5 L370.5,50.5 L370.5,90.5 L330.5,90.5 L330.5,50.5 z" fill-opacity="0" stroke="#294270" stroke-width="2"/>
    </g>
    <g>
      <path d="M370.5,50.5 L410.5,50.5 L410.5,90.5 L370.5,90.5 L370.5,50.5 z" fill="#8FC7ED"/>
      <path d="M370.5,50.5 L410.5,50.5 L410.5,90.5 L370.5,90.5 L370.5,50.5 z" fill-opacity="0" stroke="#294270" stroke-width="2"/>
    </g>
    <g>
      <path d="M10.5,90.5 L50.5,90.5 L50.5,130.5 L10.5,130.5 L10.5,90.5 z" fill="#8FC7ED"/>
      <path d="M10.5,90.5 L50.5,90.5 L50.5,130.5 L10.5,130.5 L10.5,90.5 z" fill-opacity="0" stroke="#294270" stroke-width="2"/>
    </g>
    <g>
      <path d="M50.5,90.5 L90.5,90.5 L90.5,130.5 L50.5,130.5 L50.5,90.5 z" fill="#8FC7ED"/>
      <path d="M50.5,90.5 L90.5,90.5 L90.5,130.5 L50.5,130.5 L50.5,90.5 z" fill-opacity="0" stroke="#294270" stroke-width="2"/>
    </g>
    <g>
      <path d="M90.5,90.5 L130.5,90.5 L130.5,130.5 L90.5,130.5 L90.5,90.5 z" fill="#8FC7ED"/>
      <path d="M90.5,90.5 L130.5,90.5 L130.5,130.5 L90.5,130.5 L90.5,90.5 z" fill-opacity="0" stroke="#294270" stroke-width="2"/>
    </g>
    <g>
      <path d="M130.5,90.5 L170.5,90.5 L170.5,130.5 L130.5,130.5 L130.5,90.5 z" fill="#294270"/>
      <path d="M130.5,90.5 L170.5,90.5 L170.5,130.5 L130.5,130.5 L130.5,90.5 z" fill-opacity="0" stroke="#294270" stroke-width="2"/>
    </g>
    <g>
      <path d="M170.5,90.5 L210.5,90.5 L210.5,130.5 L170.5,130.5 L170.5,90.5 z" fill="#294270"/>
      <path d="M170.5,90.5 L210.5,90.5 L210.5,130.5 L170.5,130.5 L170.5,90.5 z" fill-opacity="0" stroke="#294270" stroke-width="2"/>
    </g>
    <g>
      <path d="M210.5,90.5 L250.5,90.5 L250.5,130.5 L210.5,130.5 L210.5,90.5 z" fill="#8FC7ED"/>
      <path d="M210.5,90.5 L250.5,90.5 L250.5,130.5 L210.5,130.5 L210.5,90.5 z" fill-opacity="0" stroke="#294270" stroke-width="2"/>
    </g>
    <g>
      <path d="M250.5,90.5 L290.5,90.5 L290.5,130.5 L250.5,130.5 L250.5,90.5 z" fill="#8FC7ED"/>
      <path d="M250.5,90.5 L290.5,90.5 L290.5,130.5 L250.5,130.5 L250.5,90.5 z" fill-opacity="0" stroke="#294270" stroke-width="2"/>
    </g>
    <g>
      <path d="M290.5,90.5 L330.5,90.5 L330.5,130.5 L290.5,130.5 L290.5,90.5 z" fill="#8FC7ED"/>
      <path d="M290.5,90.5 L330.5,90.5 L330.5,130.5 L290.5,130.5 L290.5,90.5 z" fill-opacity="0" stroke="#294270" stroke-width="2"/>
    </g>
    <g>
      <path d="M330.5,90.5 L370.5,90.5 L370.5,130.5 L330.5,130.5 L330.5,90.5 z" fill="#8FC7ED"/>
      <path d="M330.5,90.5 L370.5,90.5 L370.5,130.5 L330.5,130.5 L330.5,90.5 z" fill-opacity="0" stroke="#294270" stroke-width="2"/>
    </g>
    <g>
      <path d="M370.5,90.5 L410.5,90.5 L410.5,130.5 L370.5,130.5 L370.5,90.5 z" fill="#8FC7ED"/>
      <path d="M370.5,90.5 L410.5,90.5 L410.5,130.5 L370.5,130.5 L370.5,90.5 z" fill-opacity="0" stroke="#294270" stroke-width="2"/>
    </g>
    <g>
      <path d="M10.5,130.5 L50.5,130.5 L50.5,170.5 L10.5,170.5 L10.5,130.5 z" fill="#8FC7ED"/>
      <path d="M10.5,130.5 L50.5,130.5 L50.5,170.5 L10.5,170.5 L10.5,130.5 z" fill-opacity="0" stroke="#294270" stroke-width="2"/>
    </g>
    <g>
      <path d="M50.5,130.5 L90.5,130.5 L90.5,170.5 L50.5,170.5 L50.5,130.5 z" fill="#8FC7ED"/>
      <path d="M50.5,130.5 L90.5,130.5 L90.5,170.5 L50.5,170.5 L50.5,130.5 z" fill-opacity="0" stroke="#294270" stroke-width="2"/>
    </g>
    <g>
      <path d="M90.5,130.5 L130.5,130.5 L130.5,170.5 L90.5,170.5 L90.5,130.5 z" fill="#8FC7ED"/>
      <path d="M90.5,130.5 L130.5,130.5 L130.5,170.5 L90.5,170.5 L90.5,130.5 z" fill-opacity="0" stroke="#294270" stroke-width="2"/>
    </g>
    <g>
      <path d="M130.5,130.5 L170.5,130.5 L170.5,170.5 L130.5,170.5 L130.5,130.5 z" fill="#8FC7ED"/>
      <path d="M130.5,130.5 L170.5,130.5 L170.5,170.5 L130.5,170.5 L130.5,130.5 z" fill-opacity="0" stroke="#294270" stroke-width="2"/>
    </g>
    <g>
      <path d="M170.5,130.5 L210.5,130.5 L210.5,170.5 L170.5,170.5 L170.5,130.5 z" fill="#294270"/>
      <path d="M170.5,130.5 L210.5,130.5 L210.5,170.5 L170.5,170.5 L170.5,130.5 z" fill-opacity="0" stroke="#294270" stroke-width="2"/>
    </g>
    <g>
      <path d="M210.5,130.5 L250.5,130.5 L250.5,170.5 L210.5,170.5 L210.5,130.5 z" fill="#8FC7ED"/>
      <path d="M210.5,130.5 L250.5,130.5 L250.5,170.5 L210.5,170.5 L210.5,130.5 z" fill-opacity="0" stroke="#294270" stroke-width="2"/>
    </g>
    <g>
      <path d="M250.5,130.5 L290.5,130.5 L290.5,170.5 L250.5,170.5 L250.5,130.5 z" fill="#8FC7ED"/>
      <path d="M250.5,130.5 L290.5,130.5 L290.5,170.5 L250.5,170.5 L250.5,130.5 z" fill-opacity="0" stroke="#294270" stroke-width="2"/>
    </g>
    <g>
      <path d="M290.5,130.5 L330.5,130.5 L330.5,170.5 L290.5,170.5 L290.5,130.5 z" fill="#8FC7ED"/>
      <path d="M290.5,130.5 L330.5,130.5 L330.5,170.5 L290.5,170.5 L290.5,130.5 z" fill-opacity="0" stroke="#294270" stroke-width="2"/>
    </g>
    <g>
      <path d="M330.5,130.5 L370.5,130.5 L370.5,170.5 L330.5,170.5 L330.5,130.5 z" fill="#8FC7ED"/>
      <path d="M330.5,130.5 L370.5,130.5 L370.5,170.5 L330.5,170.5 L330.5,130.5 z" fill-opacity="0" stroke="#294270" stroke-width="2"/>
    </g>
    <g>
      <path d="M370.5,130.5 L410.5,130.5 L410.5,170.5 L370.5,170.5 L370.5,130.5 z" fill="#8FC7ED"/>
      <path d="M370.5,130.5 L410.5,130.5 L410.5,170.5 L370.5,170.5 L370.5,130.5 z" fill-opacity="0" stroke="#294270" stroke-width="2"/>
    </g>
    <g>
      <path d="M10.5,170.5 L50.5,170.5 L50.5,210.5 L10.5,210.5 L10.5,170.5 z" fill="#8FC7ED"/>
      <path d="M10.5,170.5 L50.5,170.5 L50.5,210.5 L10.5,210.5 L10.5,170.5 z" fill-opacity="0" stroke="#294270" stroke-width="2"/>
    </g>
    <g>
      <path d="M50.5,170.5 L90.5,170.5 L90.5,210.5 L50.5,210.5 L50.5,170.5 z" fill="#8FC7ED"/>
      <path d="M50.5,170.5 L90.5,170.5 L90.5,210.5 L50.5,210.5 L50.5,170.5 z" fill-opacity="0" stroke="#294270" stroke-width="2"/>
    </g>
    <g>
      <path d="M90.5,170.5 L130.5,170.5 L130.5,210.5 L90.5,210.5 L90.5,170.5 z" fill="#8FC7ED"/>
      <path d="M90.5,170.5 L130.5,170.5 L130.5,210.5 L90.5,210.5 L90.5,170.5 z" fill-opacity="0" stroke="#294270" stroke-width="2"/>
    </g>
    <g>
      <path d="M130.5,170.5 L170.5,170.5 L170.5,210.5 L130.5,210.5 L130.5,170.5 z" fill="#8FC7ED"/>
      <path d="M130.5,170.5 L170.5,170.5 L170.5,210.5 L130.5,210.5 L130.5,170.5 z" fill-opacity="0" stroke="#294270" stroke-width="2"/>
    </g>
    <g>
      <path d="M170.5,170.5 L210.5,170.5 L210.5,210.5 L170.5,210.5 L170.5,170.5 z" fill="#294270"/>
      <path d="M170.5,170.5 L210.5,170.5 L210.5,210.5 L170.5,210.5 L170.5,170.5 z" fill-opacity="0" stroke="#294270" stroke-width="2"/>
    </g>
    <g>
      <path d="M210.5,170.5 L250.5,170.5 L250.5,210.5 L210.5,210.5 L210.5,170.5 z" fill="#8FC7ED"/>
      <path d="M210.5,170.5 L250.5,170.5 L250.5,210.5 L210.5,210.5 L210.5,170.5 z" fill-opacity="0" stroke="#294270" stroke-width="2"/>
    </g>
    <g>
      <path d="M250.5,170.5 L290.5,170.5 L290.5,210.5 L250.5,210.5 L250.5,170.5 z" fill="#8FC7ED"/>
      <path d="M250.5,170.5 L290.5,170.5 L290.5,210.5 L250.5,210.5 L250.5,170.5 z" fill-opacity="0" stroke="#294270" stroke-width="2"/>
    </g>
    <g>
      <path d="M290.5,170.5 L330.5,170.5 L330.5,210.5 L290.5,210.5 L290.5,170.5 z" fill="#8FC7ED"/>
      <path d="M290.5,170.5 L330.5,170.5 L330.5,210.5 L290.5,210.5 L290.5,170.5 z" fill-opacity="0" stroke="#294270" stroke-width="2"/>
    </g>
    <g>
      <path d="M330.5,170.5 L370.5,170.5 L370.5,210.5 L330.5,210.5 L330.5,170.5 z" fill="#8FC7ED"/>
      <path d="M330.5,170.5 L370.5,170.5 L370.5,210.5 L330.5,210.5 L330.5,170.5 z" fill-opacity="0" stroke="#294270" stroke-width="2"/>
    </g>
    <g>
      <path d="M370.5,170.5 L410.5,170.5 L410.5,210.5 L370.5,210.5 L370.5,170.5 z" fill="#8FC7ED"/>
      <path d="M370.5,170.5 L410.5,170.5 L410.5,210.5 L370.5,210.5 L370.5,170.5 z" fill-opacity="0" stroke="#294270" stroke-width="2"/>
    </g>
    <g>
      <path d="M10.5,210.5 L50.5,210.5 L50.5,250.5 L10.5,250.5 L10.5,210.5 z" fill="#8FC7ED"/>
      <path d="M10.5,210.5 L50.5,210.5 L50.5,250.5 L10.5,250.5 L10.5,210.5 z" fill-opacity="0" stroke="#294270" stroke-width="2"/>
    </g>
    <g>
      <path d="M50.5,210.5 L90.5,210.5 L90.5,250.5 L50.5,250.5 L50.5,210.5 z" fill="#294270"/>
      <path d="M50.5,210.5 L90.5,210.5 L90.5,250.5 L50.5,250.5 L50.5,210.5 z" fill-opacity="0" stroke="#294270" stroke-width="2"/>
    </g>
    <g>
      <path d="M90.5,210.5 L130.5,210.5 L130.5,250.5 L90.5,250.5 L90.5,210.5 z" fill="#294270"/>
      <path d="M90.5,210.5 L130.5,210.5 L130.5,250.5 L90.5,250.5 L90.5,210.5 z" fill-opacity="0" stroke="#294270" stroke-width="2"/>
    </g>
    <g>
      <path d="M130.5,210.5 L170.5,210.5 L170.5,250.5 L130.5,250.5 L130.5,210.5 z" fill="#294270"/>
      <path d="M130.5,210.5 L170.5,210.5 L170.5,250.5 L130.5,250.5 L130.5,210.5 z" fill-opacity="0" stroke="#294270" stroke-width="2"/>
    </g>
    <g>
      <path d="M170.5,210.5 L210.5,210.5 L210.5,250.5 L170.5,250.5 L170.5,210.5 z" fill="#294270"/>
      <path d="M170.5,210.5 L210.5,210.5 L210.5,250.5 L170.5,250.5 L170.5,210.5 z" fill-opacity="0" stroke="#294270" stroke-width="2"/>
    </g>
    <g>
      <path d="M210.5,210.5 L250.5,210.5 L250.5,250.5 L210.5,250.5 L210.5,210.5 z" fill="#294270"/>
      <path d="M210.5,210.5 L250.5,210.5 L250.5,250.5 L210.5,250.5 L210.5,210.5 z" fill-opacity="0" stroke="#294270" stroke-width="2"/>
    </g>
    <g>
      <path d="M250.5,210.5 L290.5,210.5 L290.5,250.5 L250.5,250.5 L250.5,210.5 z" fill="#294270"/>
      <path d="M250.5,210.5 L290.5,210.5 L290.5,250.5 L250.5,250.5 L250.5,210.5 z" fill-opacity="0" stroke="#294270" stroke-width="2"/>
    </g>
    <g>
      <path d="M290.5,210.5 L330.5,210.5 L330.5,250.5 L290.5,250.5 L290.5,210.5 z" fill="#8FC7ED"/>
      <path d="M290.5,210.5 L330.5,210.5 L330.5,250.5 L290.5,250.5 L290.5,210.5 z" fill-opacity="0" stroke="#294270" stroke-width="2"/>
    </g>
    <g>
      <path d="M330.5,210.5 L370.5,210.5 L370.5,250.5 L330.5,250.5 L330.5,210.5 z" fill="#294270"/>
      <path d="M330.5,210.5 L370.5,210.5 L370.5,250.5 L330.5,250.5 L330.5,210.5 z" fill-opacity="0" stroke="#294270" stroke-width="2"/>
    </g>
    <g>
      <path d="M370.5,210.5 L410.5,210.5 L410.5,250.5 L370.5,250.5 L370.5,210.5 z" fill="#294270"/>
      <path d="M370.5,210.5 L410.5,210.5 L410.5,250.5 L370.5,250.5 L370.5,210.5 z" fill-opacity="0" stroke="#294270" stroke-width="2"/>
    </g>
    <g>
      <path d="M10.5,250.5 L50.5,250.5 L50.5,290.5 L10.5,290.5 L10.5,250.5 z" fill="#8FC7ED"/>
      <path d="M10.5,250.5 L50.5,250.5 L50.5,290.5 L10.5,290.5 L10.5,250.5 z" fill-opacity="0" stroke="#294270" stroke-width="2"/>
    </g>
    <g>
      <path d="M50.5,250.5 L90.5,250.5 L90.5,290.5 L50.5,290.5 L50.5,250.5 z" fill="#294270"/>
      <path d="M50.5,250.5 L90.5,250.5 L90.5,290.5 L50.5,290.5 L50.5,250.5 z" fill-opacity="0" stroke="#294270" stroke-width="2"/>
    </g>
    <g>
      <path d="M90.5,250.5 L130.5,250.5 L130.5,290.5 L90.5,290.5 L90.5,250.5 z" fill="#8FC7ED"/>
      <path d="M90.5,250.5 L130.5,250.5 L130.5,290.5 L90.5,290.5 L90.5,250.5 z" fill-opacity="0" stroke="#294270" stroke-width="2"/>
    </g>
    <g>
      <path d="M130.5,250.5 L170.5,250.5 L170.5,290.5 L130.5,290.5 L130.5,250.5 z" fill="#8FC7ED"/>
      <path d="M130.5,250.5 L170.5,250.5 L170.5,290.5 L130.5,290.5 L130.5,250.5 z" fill-opacity="0" stroke="#294270" stroke-width="2"/>
    </g>
    <g>
      <path d="M170.5,250.5 L210.5,250.5 L210.5,290.5 L170.5,290.5 L170.5,250.5 z" fill="#8FC7ED"/>
      <path d="M170.5,250.5 L210.5,250.5 L210.5,290.5 L170.5,290.5 L170.5,250.5 z" fill-opacity="0" stroke="#294270" stroke-width="2"/>
    </g>
    <g>
      <path d="M210.5,250.5 L250.5,250.5 L250.5,290.5 L210.5,290.5 L210.5,250.5 z" fill="#294270"/>
      <path d="M210.5,250.5 L250.5,250.5 L250.5,290.5 L210.5,290.5 L210.5,250.5 z" fill-opacity="0" stroke="#294270" stroke-width="2"/>
    </g>
    <g>
      <path d="M250.5,250.5 L290.5,250.5 L290.5,290.5 L250.5,290.5 L250.5,250.5 z" fill="#8FC7ED"/>
      <path d="M250.5,250.5 L290.5,250.5 L290.5,290.5 L250.5,290.5 L250.5,250.5 z" fill-opacity="0" stroke="#294270" stroke-width="2"/>
    </g>
    <g>
      <path d="M290.5,250.5 L330.5,250.5 L330.5,290.5 L290.5,290.5 L290.5,250.5 z" fill="#8FC7ED"/>
      <path d="M290.5,250.5 L330.5,250.5 L330.5,290.5 L290.5,290.5 L290.5,250.5 z" fill-opacity="0" stroke="#294270" stroke-width="2"/>
    </g>
    <g>
      <path d="M330.5,250.5 L370.5,250.5 L370.5,290.5 L330.5,290.5 L330.5,250.5 z" fill="#8FC7ED"/>
      <path d="M330.5,250.5 L370.5,250.5 L370.5,290.5 L330.5,290.5 L330.5,250.5 z" fill-opacity="0" stroke="#294270" stroke-width="2"/>
    </g>
    <g>
      <path d="M370.5,250.5 L410.5,250.5 L410.5,290.5 L370.5,290.5 L370.5,250.5 z" fill="#294270"/>
      <path d="M370.5,250.5 L410.5,250.5 L410.5,290.5 L370.5,290.5 L370.5,250.5 z" fill-opacity="0" stroke="#294270" stroke-width="2"/>
    </g>
    <g>
      <path d="M10.5,290.5 L50.5,290.5 L50.5,330.5 L10.5,330.5 L10.5,290.5 z" fill="#8FC7ED"/>
      <path d="M10.5,290.5 L50.5,290.5 L50.5,330.5 L10.5,330.5 L10.5,290.5 z" fill-opacity="0" stroke="#294270" stroke-width="2"/>
    </g>
    <g>
      <path d="M50.5,290.5 L90.5,290.5 L90.5,330.5 L50.5,330.5 L50.5,290.5 z" fill="#294270"/>
      <path d="M50.5,290.5 L90.5,290.5 L90.5,330.5 L50.5,330.5 L50.5,290.5 z" fill-opacity="0" stroke="#294270" stroke-width="2"/>
    </g>
    <g>
      <path d="M90.5,290.5 L130.5,290.5 L130.5,330.5 L90.5,330.5 L90.5,290.5 z" fill="#8FC7ED"/>
      <path d="M90.5,290.5 L130.5,290.5 L130.5,330.5 L90.5,330.5 L90.5,290.5 z" fill-opacity="0" stroke="#294270" stroke-width="2"/>
    </g>
    <g>
      <path d="M130.5,290.5 L170.5,290.5 L170.5,330.5 L130.5,330.5 L130.5,290.5 z" fill="#294270"/>
      <path d="M130.5,290.5 L170.5,290.5 L170.5,330.5 L130.5,330.5 L130.5,290.5 z" fill-opacity="0" stroke="#294270" stroke-width="2"/>
    </g>
    <g>
      <path d="M170.5,290.5 L210.5,290.5 L210.5,330.5 L170.5,330.5 L170.5,290.5 z" fill="#8FC7ED"/>
      <path d="M170.5,290.5 L210.5,290.5 L210.5,330.5 L170.5,330.5 L170.5,290.5 z" fill-opacity="0" stroke="#294270" stroke-width="2"/>
    </g>
    <g>
      <path d="M210.5,290.5 L250.5,290.5 L250.5,330.5 L210.5,330.5 L210.5,290.5 z" fill="#294270"/>
      <path d="M210.5,290.5 L250.5,290.5 L250.5,330.5 L210.5,330.5 L210.5,290.5 z" fill-opacity="0" stroke="#294270" stroke-width="2"/>
    </g>
    <g>
      <path d="M250.5,290.5 L290.5,290.5 L290.5,330.5 L250.5,330.5 L250.5,290.5 z" fill="#8FC7ED"/>
      <path d="M250.5,290.5 L290.5,290.5 L290.5,330.5 L250.5,330.5 L250.5,290.5 z" fill-opacity="0" stroke="#294270" stroke-width="2"/>
    </g>
    <g>
      <path d="M290.5,290.5 L330.5,290.5 L330.5,330.5 L290.5,330.5 L290.5,290.5 z" fill="#294270"/>
      <path d="M290.5,290.5 L330.5,290.5 L330.5,330.5 L290.5,330.5 L290.5,290.5 z" fill-opacity="0" stroke="#294270" stroke-width="2"/>
    </g>
    <g>
      <path d="M330.5,290.5 L370.5,290.5 L370.5,330.5 L330.5,330.5 L330.5,290.5 z" fill="#8FC7ED"/>
      <path d="M330.5,290.5 L370.5,290.5 L370.5,330.5 L330.5,330.5 L330.5,290.5 z" fill-opacity="0" stroke="#294270" stroke-width="2"/>
    </g>
    <g>
      <path d="M370.5,290.5 L410.5,290.5 L410.5,330.5 L370.5,330.5 L370.5,290.5 z" fill="#294270"/>
      <path d="M370.5,290.5 L410.5,290.5 L410.5,330.5 L370.5,330.5 L370.5,290.5 z" fill-opacity="0" stroke="#294270" stroke-width="2"/>
    </g>
    <g>
      <path d="M10.5,330.5 L50.5,330.5 L50.5,370.5 L10.5,370.5 L10.5,330.5 z" fill="#8FC7ED"/>
      <path d="M10.5,330.5 L50.5,330.5 L50.5,370.5 L10.5,370.5 L10.5,330.5 z" fill-opacity="0" stroke="#294270" stroke-width="2"/>
    </g>
    <g>
      <path d="M50.5,330.5 L90.5,330.5 L90.5,370.5 L50.5,370.5 L50.5,330.5 z" fill="#294270"/>
      <path d="M50.5,330.5 L90.5,330.5 L90.5,370.5 L50.5,370.5 L50.5,330.5 z" fill-opacity="0" stroke="#294270" stroke-width="2"/>
    </g>
    <g>
      <path d="M90.5,330.5 L130.5,330.5 L130.5,370.5 L90.5,370.5 L90.5,330.5 z" fill="#8FC7ED"/>
      <path d="M90.5,330.5 L130.5,330.5 L130.5,370.5 L90.5,370.5 L90.5,330.5 z" fill-opacity="0" stroke="#294270" stroke-width="2"/>
    </g>
    <g>
      <path d="M130.5,330.5 L170.5,330.5 L170.5,370.5 L130.5,370.5 L130.5,330.5 z" fill="#294270"/>
      <path d="M130.5,330.5 L170.5,330.5 L170.5,370.5 L130.5,370.5 L130.5,330.5 z" fill-opacity="0" stroke="#294270" stroke-width="2"/>
    </g>
    <g>
      <path d="M170.5,330.5 L210.5,330.5 L210.5,370.5 L170.5,370.5 L170.5,330.5 z" fill="#8FC7ED"/>
      <path d="M170.5,330.5 L210.5,330.5 L210.5,370.5 L170.5,370.5 L170.5,330.5 z" fill-opacity="0" stroke="#294270" stroke-width="2"/>
    </g>
    <g>
      <path d="M210.5,330.5 L250.5,330.5 L250.5,370.5 L210.5,370.5 L210.5,330.5 z" fill="#294270"/>
      <path d="M210.5,330.5 L250.5,330.5 L250.5,370.5 L210.5,370.5 L210.5,330.5 z" fill-opacity="0" stroke="#294270" stroke-width="2"/>
    </g>
    <g>
      <path d="M250.5,330.5 L290.5,330.5 L290.5,370.5 L250.5,370.5 L250.5,330.5 z" fill="#8FC7ED"/>
      <path d="M250.5,330.5 L290.5,330.5 L290.5,370.5 L250.5,370.5 L250.5,330.5 z" fill-opacity="0" stroke="#294270" stroke-width="2"/>
    </g>
    <g>
      <path d="M290.5,330.5 L330.5,330.5 L330.5,370.5 L290.5,370.5 L290.5,330.5 z" fill="#294270"/>
      <path d="M290.5,330.5 L330.5,330.5 L330.5,370.5 L290.5,370.5 L290.5,330.5 z" fill-opacity="0" stroke="#294270" stroke-width="2"/>
    </g>
    <g>
      <path d="M330.5,330.5 L370.5,330.5 L370.5,370.5 L330.5,370.5 L330.5,330.5 z" fill="#8FC7ED"/>
      <path d="M330.5,330.5 L370.5,330.5 L370.5,370.5 L330.5,370.5 L330.5,330.5 z" fill-opacity="0" stroke="#294270" stroke-width="2"/>
    </g>
    <g>
      <path d="M370.5,330.5 L410.5,330.5 L410.5,370.5 L370.5,370.5 L370.5,330.5 z" fill="#8FC7ED"/>
      <path d="M370.5,330.5 L410.5,330.5 L410.5,370.5 L370.5,370.5 L370.5,330.5 z" fill-opacity="0" stroke="#294270" stroke-width="2"/>
    </g>
    <g>
      <path d="M10.5,370.5 L50.5,370.5 L50.5,410.5 L10.5,410.5 L10.5,370.5 z" fill="#8FC7ED"/>
      <path d="M10.5,370.5 L50.5,370.5 L50.5,410.5 L10.5,410.5 L10.5,370.5 z" fill-opacity="0" stroke="#294270" stroke-width="2"/>
    </g>
    <g>
      <path d="M50.5,370.5 L90.5,370.5 L90.5,410.5 L50.5,410.5 L50.5,370.5 z" fill="#8FC7ED"/>
      <path d="M50.5,370.5 L90.5,370.5 L90.5,410.5 L50.5,410.5 L50.5,370.5 z" fill-opacity="0" stroke="#294270" stroke-width="2"/>
    </g>
    <g>
      <path d="M90.5,370.5 L130.5,370.5 L130.5,410.5 L90.5,410.5 L90.5,370.5 z" fill="#8FC7ED"/>
      <path d="M90.5,370.5 L130.5,370.5 L130.5,410.5 L90.5,410.5 L90.5,370.5 z" fill-opacity="0" stroke="#294270" stroke-width="2"/>
    </g>
    <g>
      <path d="M130.5,370.5 L170.5,370.5 L170.5,410.5 L130.5,410.5 L130.5,370.5 z" fill="#294270"/>
      <path d="M130.5,370.5 L170.5,370.5 L170.5,410.5 L130.5,410.5 L130.5,370.5 z" fill-opacity="0" stroke="#294270" stroke-width="2"/>
    </g>
    <g>
      <path d="M170.5,370.5 L210.5,370.5 L210.5,410.5 L170.5,410.5 L170.5,370.5 z" fill="#8FC7ED"/>
      <path d="M170.5,370.5 L210.5,370.5 L210.5,410.5 L170.5,410.5 L170.5,370.5 z" fill-opacity="0" stroke="#294270" stroke-width="2"/>
    </g>
    <g>
      <path d="M210.5,370.5 L250.5,370.5 L250.5,410.5 L210.5,410.5 L210.5,370.5 z" fill="#8FC7ED"/>
      <path d="M210.5,370.5 L250.5,370.5 L250.5,410.5 L210.5,410.5 L210.5,370.5 z" fill-opacity="0" stroke="#294270" stroke-width="2"/>
    </g>
    <g>
      <path d="M250.5,370.5 L290.5,370.5 L290.5,410.5 L250.5,410.5 L250.5,370.5 z" fill="#8FC7ED"/>
      <path d="M250.5,370.5 L290.5,370.5 L290.5,410.5 L250.5,410.5 L250.5,370.5 z" fill-opacity="0" stroke="#294270" stroke-width="2"/>
    </g>
    <g>
      <path d="M290.5,370.5 L330.5,370.5 L330.5,410.5 L290.5,410.5 L290.5,370.5 z" fill="#294270"/>
      <path d="M290.5,370.5 L330.5,370.5 L330.5,410.5 L290.5,410.5 L290.5,370.5 z" fill-opacity="0" stroke="#294270" stroke-width="2"/>
    </g>
    <g>
      <path d="M330.5,370.5 L370.5,370.5 L370.5,410.5 L330.5,410.5 L330.5,370.5 z" fill="#8FC7ED"/>
      <path d="M330.5,370.5 L370.5,370.5 L370.5,410.5 L330.5,410.5 L330.5,370.5 z" fill-opacity="0" stroke="#294270" stroke-width="2"/>
    </g>
    <g>
      <path d="M370.5,370.5 L410.5,370.5 L410.5,410.5 L370.5,410.5 L370.5,370.5 z" fill="#C5C6C6"/>
      <path d="M370.5,370.5 L410.5,370.5 L410.5,410.5 L370.5,410.5 L370.5,370.5 z" fill-opacity="0" stroke="#294270" stroke-width="2"/>
    </g>
    <path d="M30,12.857 C39.453,12.857 47.143,20.551 47.143,30.009 C47.108,38.996 39.772,46.912 30.675,47.143 L29.325,47.143 C20.002,46.893 13.087,39.092 12.857,30.009 C12.857,20.551 20.548,12.857 30,12.857 z M30,14.597 C21.506,14.597 14.596,21.511 14.596,30.009 C14.596,38.507 21.506,45.421 30,45.421 C38.494,45.421 45.404,38.507 45.404,30.009 C45.404,21.511 38.494,14.597 30,14.597 z" fill="#294270"/>
    <path d="M27.323,20.403 L27.323,17.627 C27.323,17.227 28.896,16.78 29.964,16.78 C31.031,16.78 32.661,17.227 32.661,17.627 L32.661,20.397 C31.76,20.227 30.798,20.109 29.99,20.109 C29.172,20.109 28.213,20.23 27.323,20.403" fill="#006CA9"/>
    <path d="M26.192,37.319 C23.838,37.319 21.917,36.589 21.202,36.515 C20.14,36.405 19.013,35.364 17.99,35.364 C17.82,35.364 17.653,35.392 17.49,35.459 C17.261,34.924 17.066,34.373 16.906,33.806 C18.577,32.281 20.164,31.78 21.527,31.78 C24.119,31.78 25.9,33.592 25.908,33.617 C26.047,33.746 28.602,35.635 29.974,35.941 L31.02,36.074 C29.367,37.023 27.692,37.319 26.192,37.319" fill="#006CA9"/>
    <path d="M17.515,35.522 L17.517,35.52 L17.494,35.47 L17.515,35.522" fill="#A54389"/>
    <path d="M35.692,25.6 C35.692,25.236 35.692,22.704 35.692,22.704 C35.692,22.304 32.245,21.383 29.99,21.383 C27.734,21.383 24.407,22.304 24.407,22.704 C24.407,22.704 24.407,25.46 24.407,25.564 C27.048,23.675 29.943,22.833 29.943,22.833 C29.952,22.831 33.03,23.681 35.692,25.6" fill="#294270"/>
    <path d="M37.082,31.306 C36.228,31.469 35.227,32.696 33.932,33.937 C34.443,32.108 35.371,30.058 37.051,28.29 C36.599,27.88 36.137,27.506 35.679,27.167 L35.679,27.159 C33.991,25.913 32.038,24.843 30.013,24.255 L30.011,24.256 C29.174,24.474 28.349,24.866 27.572,25.236 C25.899,26.032 24.326,27.041 22.952,28.288 L22.949,28.29 C24.446,29.809 25.337,31.717 25.871,33.5 C25.882,33.538 25.896,33.578 25.908,33.617 C26.047,33.746 26.19,33.875 26.335,33.998 C27.386,34.893 28.576,35.631 29.948,35.937 L29.943,35.895 L29.404,31.536 L29.267,28.602 L30.004,25.243 L30.68,28.602 L30.519,31.544 L30.037,35.916 L30.033,35.955 L31.02,36.074 C29.421,36.81 26.924,37.21 24.335,35.97 C23.291,35.47 22.279,34.994 21.109,34.873 C19.87,34.745 18.636,34.992 17.49,35.459 L17.489,35.459 L17.494,35.47 L17.517,35.52 C19.732,40.562 24.913,43.851 30.418,43.683 C35.818,43.518 40.727,40.037 42.693,35.006 C42.8,34.733 42.898,34.456 42.987,34.177 C41.129,32.808 38.21,31.089 37.082,31.306" fill="#294270"/>
    <path d="M37.082,31.306 C38.21,31.089 36.228,31.469 37.082,31.306" fill="#323D46"/>
    <g>
      <path d="M219.256,59.139 C225.156,52.139 237.156,52.139 243.256,58.94 C247.956,64.839 246.756,73.639 242.156,79.24 C237.856,82.74 231.756,84.54 226.756,81.54 C221.656,79.04 219.557,72.24 222.557,67.44 C224.857,63.24 231.157,62.339 234.456,65.74 C236.956,67.94 236.756,72.139 234.356,74.24 C232.656,74.84 230.856,74.94 229.056,75.139 C231.455,74.039 235.556,73.139 234.556,69.539 C233.556,65.039 226.755,65.139 225.455,69.439 C223.655,73.838 228.155,78.439 232.655,77.539 C238.355,76.639 240.655,68.539 236.755,64.439 C233.056,59.838 225.356,60.039 221.755,64.539 C217.255,69.439 217.856,77.939 223.056,82.039 C228.955,87.239 238.656,86.439 243.755,80.539 C244.155,80.139 244.955,79.539 245.356,79.139 C240.755,88.139 227.356,89.74 220.255,82.94 C213.357,77.139 212.857,65.44 219.256,59.139 L219.256,59.139 z" fill="#F0801A"/>
      <path d="M219.256,59.139 C225.156,52.139 237.156,52.139 243.256,58.94 C247.956,64.839 246.756,73.639 242.156,79.24 C237.856,82.74 231.756,84.54 226.756,81.54 C221.656,79.04 219.557,72.24 222.557,67.44 C224.857,63.24 231.157,62.339 234.456,65.74 C236.956,67.94 236.756,72.139 234.356,74.24 C232.656,74.84 230.856,74.94 229.056,75.139 C231.455,74.039 235.556,73.139 234.556,69.539 C233.556,65.039 226.755,65.139 225.455,69.439 C223.655,73.838 228.155,78.439 232.655,77.539 C238.355,76.639 240.655,68.539 236.755,64.439 C233.056,59.838 225.356,60.039 221.755,64.539 C217.255,69.439 217.856,77.939 223.056,82.039 C228.955,87.239 238.656,86.439 243.755,80.539 C244.155,80.139 244.955,79.539 245.356,79.139 C240.755,88.139 227.356,89.74 220.255,82.94 C213.357,77.139 212.857,65.44 219.256,59.139 L219.256,59.139 z" fill-opacity="0" stroke="#294270" stroke-width="1"/>
    </g>
    <g>
      <path d="M379.256,19.139 C385.156,12.139 397.156,12.139 403.256,18.94 C407.956,24.839 406.756,33.639 402.156,39.24 C397.856,42.74 391.756,44.54 386.756,41.54 C381.656,39.04 379.557,32.24 382.557,27.44 C384.857,23.24 391.157,22.339 394.456,25.74 C396.956,27.94 396.756,32.139 394.356,34.24 C392.656,34.84 390.856,34.94 389.056,35.139 C391.455,34.039 395.556,33.139 394.556,29.539 C393.556,25.039 386.755,25.139 385.455,29.439 C383.655,33.838 388.155,38.439 392.655,37.539 C398.355,36.639 400.655,28.539 396.755,24.439 C393.056,19.838 385.356,20.039 381.755,24.539 C377.255,29.439 377.856,37.939 383.056,42.039 C388.955,47.239 398.656,46.439 403.755,40.539 C404.155,40.139 404.955,39.539 405.356,39.139 C400.755,48.139 387.356,49.74 380.255,42.94 C373.357,37.139 372.857,25.44 379.256,19.139 L379.256,19.139 z" fill="#F0801A"/>
      <path d="M379.256,19.139 C385.156,12.139 397.156,12.139 403.256,18.94 C407.956,24.839 406.756,33.639 402.156,39.24 C397.856,42.74 391.756,44.54 386.756,41.54 C381.656,39.04 379.557,32.24 382.557,27.44 C384.857,23.24 391.157,22.339 394.456,25.74 C396.956,27.94 396.756,32.139 394.356,34.24 C392.656,34.84 390.856,34.94 389.056,35.139 C391.455,34.039 395.556,33.139 394.556,29.539 C393.556,25.039 386.755,25.139 385.455,29.439 C383.655,33.838 388.155,38.439 392.655,37.539 C398.355,36.639 400.655,28.539 396.755,24.439 C393.056,19.838 385.356,20.039 381.755,24.539 C377.255,29.439 377.856,37.939 383.056,42.039 C388.955,47.239 398.656,46.439 403.755,40.539 C404.155,40.139 404.955,39.539 405.356,39.139 C400.755,48.139 387.356,49.74 380.255,42.94 C373.357,37.139 372.857,25.44 379.256,19.139 L379.256,19.139 z" fill-opacity="0" stroke="#294270" stroke-width="1"/>
    </g>
  </g>
</svg>
