<?xml version="1.0" encoding="UTF-8"?>
<!DOCTYPE svg PUBLIC "-//W3C//DTD SVG 1.1//EN" "http://www.w3.org/Graphics/SVG/1.1/DTD/svg11.dtd">
<svg version="1.1" xmlns="http://www.w3.org/2000/svg" xmlns:xlink="http://www.w3.org/1999/xlink" x="0" y="0" width="40" height="40" viewBox="0, 0, 40, 40">
  <g id="Layer_1">
    <path d="M19.858,2.714 C29.31,2.714 37,10.409 37,19.866 C36.966,28.854 29.629,36.769 20.533,37 L19.183,37 C9.859,36.75 2.944,28.949 2.714,19.866 C2.714,10.409 10.405,2.714 19.858,2.714 z M19.858,4.454 C11.363,4.454 4.453,11.368 4.453,19.866 C4.453,28.364 11.363,35.278 19.858,35.278 C28.351,35.278 35.261,28.364 35.261,19.866 C35.261,11.368 28.351,4.454 19.858,4.454 z" fill="#294270"/>
    <path d="M17.18,10.26 L17.18,7.484 C17.18,7.084 18.754,6.638 19.821,6.638 C20.888,6.638 22.518,7.084 22.518,7.484 L22.518,10.255 C21.618,10.084 20.655,9.966 19.847,9.966 C19.029,9.966 18.07,10.087 17.18,10.26" fill="#006CA9"/>
    <path d="M16.05,27.176 C13.695,27.176 11.774,26.446 11.059,26.372 C9.997,26.262 8.87,25.221 7.847,25.221 C7.677,25.221 7.51,25.25 7.347,25.316 C7.119,24.781 6.923,24.23 6.763,23.663 C8.434,22.138 10.021,21.637 11.384,21.637 C13.976,21.637 15.757,23.449 15.765,23.474 C15.904,23.604 18.459,25.492 19.831,25.798 L20.877,25.931 C19.224,26.88 17.549,27.176 16.05,27.176" fill="#006CA9"/>
    <path d="M7.372,25.379 L7.374,25.378 L7.351,25.327 L7.372,25.379" fill="#A54389"/>
    <path d="M25.549,15.457 C25.549,15.093 25.549,12.561 25.549,12.561 C25.549,12.161 22.102,11.241 19.847,11.241 C17.591,11.241 14.265,12.161 14.265,12.561 C14.265,12.561 14.265,15.317 14.265,15.421 C16.905,13.532 19.8,12.691 19.8,12.691 C19.809,12.688 22.887,13.538 25.549,15.457" fill="#294270"/>
    <path d="M26.939,21.163 C26.085,21.326 25.084,22.553 23.79,23.794 C24.3,21.965 25.228,19.915 26.908,18.147 C26.456,17.737 25.994,17.363 25.536,17.024 L25.536,17.016 C23.848,15.77 21.895,14.7 19.87,14.112 L19.868,14.113 C19.031,14.331 18.206,14.723 17.429,15.093 C15.756,15.889 14.183,16.898 12.809,18.145 L12.806,18.147 C14.303,19.666 15.194,21.574 15.728,23.357 C15.739,23.396 15.753,23.435 15.765,23.474 C15.904,23.604 16.048,23.732 16.192,23.855 C17.244,24.75 18.433,25.488 19.805,25.794 L19.8,25.752 L19.261,21.393 L19.124,18.459 L19.861,15.1 L20.537,18.459 L20.376,21.401 L19.894,25.773 L19.89,25.812 L20.877,25.931 C19.278,26.667 16.781,27.067 14.193,25.828 C13.148,25.327 12.136,24.851 10.967,24.73 C9.727,24.602 8.494,24.849 7.347,25.316 L7.346,25.316 L7.351,25.327 L7.374,25.378 C9.589,30.419 14.77,33.708 20.276,33.54 C25.675,33.375 30.584,29.895 32.55,24.864 C32.657,24.59 32.755,24.314 32.844,24.034 C30.986,22.666 28.067,20.946 26.939,21.163" fill="#294270"/>
    <path d="M26.939,21.163 C28.067,20.946 26.085,21.326 26.939,21.163" fill="#323D46"/>
  </g>
</svg>
