<?xml version="1.0" encoding="UTF-8"?>
<!DOCTYPE svg PUBLIC "-//W3C//DTD SVG 1.1//EN" "http://www.w3.org/Graphics/SVG/1.1/DTD/svg11.dtd">
<svg version="1.1" xmlns="http://www.w3.org/2000/svg" xmlns:xlink="http://www.w3.org/1999/xlink" x="0" y="0" width="40" height="40" viewBox="0, 0, 40, 40">
  <g id="Layer_1">
    <g>
      <path d="M8.51,8.502 C14.41,1.502 26.41,1.502 32.51,8.303 C37.21,14.202 36.01,23.002 31.41,28.603 C27.11,32.103 21.01,33.903 16.01,30.903 C10.91,28.403 8.811,21.603 11.811,16.803 C14.111,12.603 20.411,11.702 23.71,15.103 C26.21,17.303 26.01,21.502 23.61,23.603 C21.91,24.203 20.11,24.303 18.31,24.502 C20.709,23.402 24.81,22.502 23.81,18.902 C22.81,14.402 16.009,14.502 14.709,18.802 C12.909,23.201 17.409,27.802 21.909,26.902 C27.609,26.002 29.909,17.902 26.009,13.802 C22.31,9.201 14.61,9.402 11.009,13.902 C6.509,18.802 7.11,27.302 12.31,31.402 C18.209,36.602 27.91,35.802 33.009,29.902 C33.409,29.502 34.209,28.902 34.61,28.502 C30.009,37.502 16.61,39.103 9.509,32.303 C2.611,26.502 2.111,14.803 8.51,8.502 L8.51,8.502 z" fill="#F0801A"/>
      <path d="M8.51,8.502 C14.41,1.502 26.41,1.502 32.51,8.303 C37.21,14.202 36.01,23.002 31.41,28.603 C27.11,32.103 21.01,33.903 16.01,30.903 C10.91,28.403 8.811,21.603 11.811,16.803 C14.111,12.603 20.411,11.702 23.71,15.103 C26.21,17.303 26.01,21.502 23.61,23.603 C21.91,24.203 20.11,24.303 18.31,24.502 C20.709,23.402 24.81,22.502 23.81,18.902 C22.81,14.402 16.009,14.502 14.709,18.802 C12.909,23.201 17.409,27.802 21.909,26.902 C27.609,26.002 29.909,17.902 26.009,13.802 C22.31,9.201 14.61,9.402 11.009,13.902 C6.509,18.802 7.11,27.302 12.31,31.402 C18.209,36.602 27.91,35.802 33.009,29.902 C33.409,29.502 34.209,28.902 34.61,28.502 C30.009,37.502 16.61,39.103 9.509,32.303 C2.611,26.502 2.111,14.803 8.51,8.502 L8.51,8.502 z" fill-opacity="0" stroke="#294270" stroke-width="1"/>
    </g>
  </g>
</svg>
